<?xml version="1.0" encoding="UTF-8"?>
<svg width="605" height="612" viewBox="0 0 64.585 63.089" xmlns="http://www.w3.org/2000/svg">
  <title>羽</title>
  <g fill="#FFFFFF" fill-rule="nonzero">
    <path d="M 33.9 4.425 L 33.9 0 L 64.575 0 L 64.575 58.2 Q 64.575 60.525 63.375 61.8 Q 62.175 63.075 59.775 63.075 L 46.275 63.075 L 45 58.5 L 59.625 58.5 L 59.625 4.425 L 33.9 4.425 Z M 25.425 4.425 L 0.9 4.425 L 0.9 0 L 30.3 0 L 30.3 58.2 Q 30.3 60.525 29.1 61.8 Q 27.9 63.075 25.5 63.075 L 12.3 63.075 L 11.1 58.5 L 25.425 58.5 L 25.425 4.425 Z M 55.2 30.45 L 58.275 33.825 A 97.322 97.322 0 0 1 49.899 41.693 A 143.297 143.297 0 0 1 48.037 43.237 A 136.42 136.42 0 0 1 37.944 50.788 A 97.588 97.588 0 0 1 36.6 51.675 L 33.75 47.7 A 88.846 88.846 0 0 0 41.963 42.061 A 140.179 140.179 0 0 0 45 39.675 A 118.378 118.378 0 0 0 53.072 32.602 A 71.834 71.834 0 0 0 55.2 30.45 Z M 21.15 30.45 L 24.15 33.825 Q 20.1 38.175 14.213 43.125 Q 8.325 48.075 2.925 51.675 L 0 47.7 A 92.534 92.534 0 0 0 8.009 42.082 A 147.598 147.598 0 0 0 10.987 39.712 A 118.5 118.5 0 0 0 19.559 32.078 A 75.434 75.434 0 0 0 21.15 30.45 Z M 53.4 24 L 50.25 27.3 A 61.851 61.851 0 0 0 45.078 21.258 A 104.741 104.741 0 0 0 44.138 20.287 Q 40.275 16.35 36.75 13.35 L 39.975 10.275 Q 43.275 13.05 47.175 16.987 Q 51.075 20.925 53.4 24 Z M 19.125 24 L 15.825 27.3 A 72.805 72.805 0 0 0 10.387 20.842 A 116.531 116.531 0 0 0 9.938 20.362 Q 6.3 16.5 3.075 13.575 L 6.3 10.5 Q 9.375 13.05 13.088 16.987 A 92.816 92.816 0 0 1 18.522 23.218 A 54.523 54.523 0 0 1 19.125 24 Z"/>
  </g>
</svg>
